name analog
datacolumns 19
datarows 69
range 0.4935 0.5275
endheader
time	ground_force_vx	ground_force_vy	ground_force_vz	ground_force_px	ground_force_py	ground_force_pz	l_ground_force_vx	l_ground_force_vy	l_ground_force_vz	l_ground_force_px	l_ground_force_py	l_ground_force_pz	ground_torque_x	ground_torque_y	ground_torque_z	l_ground_torque_x	l_ground_torque_y	l_ground_torque_z
0.4935	-0.0	-0.0	-0.0	-0.0	-0.0	-0.0	0.5789084434509277	-5.587852954864502	-745.2158203125	-0.0	-0.0	-0.0	-0.0	-0.0	-0.0	203580.515625	2312.99169921875	-904.9896850585938
0.494	-0.0	-0.0	-0.0	-0.0	-0.0	-0.0	-0.9933041334152222	-4.212363243103027	-746.8837280273438	-0.0	-0.0	-0.0	-0.0	-0.0	-0.0	204076.6875	2702.42822265625	-1319.3359375
0.4945	-0.0	-0.0	-0.0	-0.0	-0.0	-0.0	-1.0681871175765991	-3.378304481506348	-746.801025390625	-0.0	-0.0	-0.0	-0.0	-0.0	-0.0	204790.765625	3082.830322265625	-1551.5478515625
0.495	-0.0	-0.0	-0.0	-0.0	-0.0	-0.0	-1.0263911485671997	-2.2963638305664062	-746.1370239257812	-0.0	-0.0	-0.0	-0.0	-0.0	-0.0	205273.140625	3565.496337890625	-1688.2969970703125
0.4955	-0.0	-0.0	-0.0	-0.0	-0.0	-0.0	-0.8902164101600647	-1.4878063201904297	-745.8504638671875	-0.0	-0.0	-0.0	-0.0	-0.0	-0.0	205587.421875	3784.6240234375	-1697.629150390625
0.496	-0.0	-0.0	-0.0	-0.0	-0.0	-0.0	-0.7356884479522705	-1.097320318222046	-745.2870483398438	-0.0	-0.0	-0.0	-0.0	-0.0	-0.0	205224.546875	4046.16162109375	-1734.204833984375
0.4965	-0.0	-0.0	-0.0	-0.0	-0.0	-0.0	-0.1519327908754348	-1.4540526866912842	-743.580322265625	-0.0	-0.0	-0.0	-0.0	-0.0	-0.0	205347.390625	4246.416015625	-1717.8302001953125
0.497	-0.0	-0.0	-0.0	-0.0	-0.0	-0.0	-0.0126295685768127	-1.7349300384521484	-742.9697265625	-0.0	-0.0	-0.0	-0.0	-0.0	-0.0	204909.71875	4260.12158203125	-1788.794189453125
0.4975	-0.0	-0.0	-0.0	-0.0	-0.0	-0.0	0.1267096996307373	-2.100907564163208	-739.0667114257812	-0.0	-0.0	-0.0	-0.0	-0.0	-0.0	204728.984375	4347.6904296875	-1783.5087890625
0.498	-0.0	-0.0	-0.0	-0.0	-0.0	-0.0	1.1788386106491089	-1.994049310684204	-737.3074340820312	-0.0	-0.0	-0.0	-0.0	-0.0	-0.0	204373.09375	4166.20703125	-1690.5184326171875
0.4985	-0.0	-0.0	-0.0	-0.0	-0.0	-0.0	2.11651349067688	-0.6345794200897217	-738.6784057617188	-0.0	-0.0	-0.0	-0.0	-0.0	-0.0	204824.640625	3961.488037109375	-1357.179443359375
0.499	-0.0	-0.0	-0.0	-0.0	-0.0	-0.0	3.174196720123291	1.1095999479293823	-739.9031982421875	-0.0	-0.0	-0.0	-0.0	-0.0	-0.0	205471.53125	3982.2578125	-1124.9783935546875
0.4995	-0.0	-0.0	-0.0	-0.0	-0.0	-0.0	3.937934160232544	2.645354747772217	-739.2198486328125	-0.0	-0.0	-0.0	-0.0	-0.0	-0.0	205663.4375	3937.03271484375	-822.9467163085938
0.5	-0.0	-0.0	-0.0	-0.0	-0.0	-0.0	4.524250030517578	3.015913486480713	-738.2091674804688	-0.0	-0.0	-0.0	-0.0	-0.0	-0.0	205764.8125	4169.24609375	-691.364013671875
0.5005000000000001	-0.0	-0.0	-0.0	-0.0	-0.0	-0.0	3.95566463470459	3.685951232910156	-737.7186889648438	-0.0	-0.0	-0.0	-0.0	-0.0	-0.0	205483.203125	4539.1728515625	-750.4935302734375
0.501	-0.0	-0.0	-0.0	-0.0	-0.0	-0.0	3.517298698425293	3.5017759799957275	-736.134765625	-0.0	-0.0	-0.0	-0.0	-0.0	-0.0	205007.5	4703.4306640625	-702.5037231445312
0.5015000000000001	-0.0	-0.0	-0.0	-0.0	-0.0	-0.0	3.041616439819336	3.6367013454437256	-734.4439086914062	-0.0	-0.0	-0.0	-0.0	-0.0	-0.0	204633.390625	5100.08837890625	-806.0560913085938
0.502	-0.0	-0.0	-0.0	-0.0	-0.0	-0.0	2.3992044925689697	3.811020612716675	-732.9735107421875	-0.0	-0.0	-0.0	-0.0	-0.0	-0.0	204144.9375	5513.54150390625	-845.6365356445312
0.5025000000000001	-0.0	-0.0	-0.0	-0.0	-0.0	-0.0	2.071397304534912	3.909327983856201	-731.3029174804688	-0.0	-0.0	-0.0	-0.0	-0.0	-0.0	203921.5	5837.50390625	-908.1874389648438
0.503	-0.0	-0.0	-0.0	-0.0	-0.0	-0.0	1.3239847421646118	4.740325927734375	-730.1641845703125	-0.0	-0.0	-0.0	-0.0	-0.0	-0.0	203299.71875	6510.60107421875	-1068.0079345703125
0.5035000000000001	-0.0	-0.0	-0.0	-0.0	-0.0	-0.0	0.663314700126648	4.902634143829346	-730.4093017578125	-0.0	-0.0	-0.0	-0.0	-0.0	-0.0	203220.53125	6670.09619140625	-1232.46533203125
0.504	-0.0	-0.0	-0.0	-0.0	-0.0	-0.0	0.2796172499656677	4.539024829864502	-727.8749389648438	-0.0	-0.0	-0.0	-0.0	-0.0	-0.0	202797.25	7073.50732421875	-1324.5115966796875
0.5045000000000001	-0.0	-0.0	-0.0	-0.0	-0.0	-0.0	-0.3530050814151764	3.5991086959838867	-727.8331298828125	-0.0	-0.0	-0.0	-0.0	-0.0	-0.0	202788.421875	7282.548828125	-1481.3988037109375
0.505	-0.0	-0.0	-0.0	-0.0	-0.0	-0.0	-0.5969763398170471	3.0131611824035645	-728.1697998046875	-0.0	-0.0	-0.0	-0.0	-0.0	-0.0	202797.859375	7530.96044921875	-1582.168701171875
0.5055000000000001	-0.0	-0.0	-0.0	-0.0	-0.0	-0.0	-1.1684788465499878	2.73287034034729	-728.8675537109375	-0.0	-0.0	-0.0	-0.0	-0.0	-0.0	203316.640625	7600.1220703125	-1720.6104736328125
0.506	-0.0	-0.0	-0.0	-0.0	-0.0	-0.0	-1.2144663333892822	2.704378843307495	-731.1481323242188	-0.0	-0.0	-0.0	-0.0	-0.0	-0.0	203769.28125	7806.30224609375	-1786.7066650390625
0.5065000000000001	-0.0	-0.0	-0.0	-0.0	-0.0	-0.0	-1.482734441757202	3.0234150886535645	-732.62060546875	-0.0	-0.0	-0.0	-0.0	-0.0	-0.0	205005.421875	7898.95947265625	-1869.23095703125
0.507	-0.0	-0.0	-0.0	-0.0	-0.0	-0.0	-1.0673954486846924	3.2707557678222656	-734.9100341796875	-0.0	-0.0	-0.0	-0.0	-0.0	-0.0	205825.328125	7864.56494140625	-1892.851318359375
0.5075000000000001	-0.0	-0.0	-0.0	-0.0	-0.0	-0.0	-0.6223276853561401	3.045847177505493	-736.9202270507812	-0.0	-0.0	-0.0	-0.0	-0.0	-0.0	206471.890625	7724.27001953125	-1830.9713134765625
0.508	-0.0	-0.0	-0.0	-0.0	-0.0	-0.0	-0.7654424905776978	2.751850128173828	-739.119140625	-0.0	-0.0	-0.0	-0.0	-0.0	-0.0	207017.578125	8136.61572265625	-1895.38037109375
0.5085000000000001	-0.0	-0.0	-0.0	-0.0	-0.0	-0.0	-0.784416139125824	2.734476089477539	-739.9395751953125	-0.0	-0.0	-0.0	-0.0	-0.0	-0.0	207264.984375	8045.26416015625	-1755.5206298828125
0.509	-0.0	-0.0	-0.0	-0.0	-0.0	-0.0	-0.3245344460010528	2.2963955402374268	-739.8800659179688	-0.0	-0.0	-0.0	-0.0	-0.0	-0.0	207380.25	8173.3125	-1690.4444580078125
0.5095000000000001	-0.0	-0.0	-0.0	-0.0	-0.0	-0.0	-0.112841747701168	2.2000279426574707	-738.9817504882812	-0.0	-0.0	-0.0	-0.0	-0.0	-0.0	207499.71875	8285.2890625	-1605.7891845703125
0.51	-0.0	-0.0	-0.0	-0.0	-0.0	-0.0	0.1029086410999298	2.469499111175537	-740.2152709960938	-0.0	-0.0	-0.0	-0.0	-0.0	-0.0	207924.078125	8368.05859375	-1496.744384765625
0.5105000000000001	-0.0	-0.0	-0.0	-0.0	-0.0	-0.0	0.2324255406856537	3.338538408279419	-740.857666015625	-0.0	-0.0	-0.0	-0.0	-0.0	-0.0	208155.734375	8443.8212890625	-1308.732421875
0.511	-0.0	-0.0	-0.0	-0.0	-0.0	-0.0	0.4005430042743683	3.3249988555908203	-740.4324951171875	-0.0	-0.0	-0.0	-0.0	-0.0	-0.0	208196.78125	8533.5439453125	-1234.2728271484375
0.5115000000000001	-0.0	-0.0	-0.0	-0.0	-0.0	-0.0	-0.0232491418719291	4.011955738067627	-741.1473388671875	-0.0	-0.0	-0.0	-0.0	-0.0	-0.0	208340.5	8737.548828125	-1212.4178466796875
0.512	-0.0	-0.0	-0.0	-0.0	-0.0	-0.0	-0.4600988328456878	4.19633150100708	-741.2489013671875	-0.0	-0.0	-0.0	-0.0	-0.0	-0.0	208127.875	8742.5458984375	-1290.0001220703125
0.5125	-0.0	-0.0	-0.0	-0.0	-0.0	-0.0	-0.4883239567279815	4.471070289611816	-740.299560546875	-0.0	-0.0	-0.0	-0.0	-0.0	-0.0	208141.40625	9136.775390625	-1240.378662109375
0.513	-0.0	-0.0	-0.0	-0.0	-0.0	-0.0	-0.6216738820075989	4.9163737297058105	-741.2203979492188	-0.0	-0.0	-0.0	-0.0	-0.0	-0.0	208451.25	9257.763671875	-1238.277587890625
0.5135	-0.0	-0.0	-0.0	-0.0	-0.0	-0.0	-0.4331487715244293	5.395148277282715	-741.65869140625	-0.0	-0.0	-0.0	-0.0	-0.0	-0.0	208584.890625	9404.4248046875	-1145.8975830078125
0.514	-0.0	-0.0	-0.0	-0.0	-0.0	-0.0	0.2961580455303192	5.754836082458496	-741.2489013671875	-0.0	-0.0	-0.0	-0.0	-0.0	-0.0	208702.0625	9745.345703125	-917.912841796875
0.5145	-0.0	-0.0	-0.0	-0.0	-0.0	-0.0	0.5064494013786316	6.13104772567749	-741.175537109375	-0.0	-0.0	-0.0	-0.0	-0.0	-0.0	208747.4375	9656.9921875	-890.4426879882812
0.515	-0.0	-0.0	-0.0	-0.0	-0.0	-0.0	0.6875295639038086	6.057392597198486	-739.6485595703125	-0.0	-0.0	-0.0	-0.0	-0.0	-0.0	208167.140625	10202.3837890625	-850.8206176757812
0.5155	-0.0	-0.0	-0.0	-0.0	-0.0	-0.0	0.3254595994949341	5.486560821533203	-738.2079467773438	-0.0	-0.0	-0.0	-0.0	-0.0	-0.0	207432.859375	10550.5615234375	-878.429931640625
0.516	-0.0	-0.0	-0.0	-0.0	-0.0	-0.0	0.0588909089565277	4.342607021331787	-733.916748046875	-0.0	-0.0	-0.0	-0.0	-0.0	-0.0	206431.78125	11106.49609375	-1041.8319091796875
0.5165	-0.0	-0.0	-0.0	-0.0	-0.0	-0.0	-0.9446939826011658	3.2567381858825684	-730.9783935546875	-0.0	-0.0	-0.0	-0.0	-0.0	-0.0	205694.5	11462.275390625	-1194.88671875
0.517	-0.0	-0.0	-0.0	-0.0	-0.0	-0.0	-1.699169635772705	2.472911834716797	-729.5524291992188	-0.0	-0.0	-0.0	-0.0	-0.0	-0.0	204937.421875	12045.263671875	-1394.779541015625
0.5175	-0.0	-0.0	-0.0	-0.0	-0.0	-0.0	-2.1535990238189697	2.217924118041992	-727.5576171875	-0.0	-0.0	-0.0	-0.0	-0.0	-0.0	204182.65625	12638.0517578125	-1664.5234375
0.518	-0.0	-0.0	-0.0	-0.0	-0.0	-0.0	-2.321648359298706	1.7385177612304688	-724.8477783203125	-0.0	-0.0	-0.0	-0.0	-0.0	-0.0	203884.265625	13076.365234375	-1870.8121337890625
0.5185	-0.0	-0.0	-0.0	-0.0	-0.0	-0.0	-2.7526421546936035	1.5607482194900513	-724.3746337890625	-0.0	-0.0	-0.0	-0.0	-0.0	-0.0	203609.875	13413.890625	-2094.117431640625
0.519	-0.0	-0.0	-0.0	-0.0	-0.0	-0.0	-3.510282516479492	0.7369718551635742	-722.5694580078125	-0.0	-0.0	-0.0	-0.0	-0.0	-0.0	203447.53125	13626.759765625	-2276.260009765625
0.5195	-0.0	-0.0	-0.0	-0.0	-0.0	-0.0	-3.8457939624786377	-0.0523434951901435	-723.2457275390625	-0.0	-0.0	-0.0	-0.0	-0.0	-0.0	203532.4375	14129.8203125	-2499.37353515625
0.52	-0.0	-0.0	-0.0	-0.0	-0.0	-0.0	-3.6217775344848633	-0.6147902607917786	-721.6359252929688	-0.0	-0.0	-0.0	-0.0	-0.0	-0.0	203033.265625	14255.3720703125	-2524.175048828125
0.5205	-0.0	-0.0	-0.0	-0.0	-0.0	-0.0	-3.6323421001434326	-0.6375071406364441	-721.7759399414062	-0.0	-0.0	-0.0	-0.0	-0.0	-0.0	203023.203125	14319.4169921875	-2476.4794921875
0.521	-0.0	-0.0	-0.0	-0.0	-0.0	-0.0	-3.540599584579468	-0.1113645732402801	-722.12890625	-0.0	-0.0	-0.0	-0.0	-0.0	-0.0	203312.796875	14457.201171875	-2578.843994140625
0.5215	-0.0	-0.0	-0.0	-0.0	-0.0	-0.0	-3.171428203582764	0.2854740023612976	-722.1848754882812	-0.0	-0.0	-0.0	-0.0	-0.0	-0.0	203280.265625	14371.5263671875	-2635.388427734375
0.522	-0.0	-0.0	-0.0	-0.0	-0.0	-0.0	-2.2646398544311523	1.0131956338882446	-723.4004516601562	-0.0	-0.0	-0.0	-0.0	-0.0	-0.0	203538.828125	14166.931640625	-2423.355712890625
0.5225	-0.0	-0.0	-0.0	-0.0	-0.0	-0.0	-1.8238394260406492	1.427357196807861	-723.3701171875	-0.0	-0.0	-0.0	-0.0	-0.0	-0.0	203990.71875	14100.6328125	-2280.26025390625
0.523	-0.0	-0.0	-0.0	-0.0	-0.0	-0.0	-1.3778380155563354	2.17673659324646	-725.3934936523438	-0.0	-0.0	-0.0	-0.0	-0.0	-0.0	204289.453125	14146.4091796875	-2222.603271484375
0.5235	-0.0	-0.0	-0.0	-0.0	-0.0	-0.0	-1.0961344242095947	2.5841176509857178	-726.6568603515625	-0.0	-0.0	-0.0	-0.0	-0.0	-0.0	204350.421875	14239.0224609375	-2183.36083984375
0.524	-0.0	-0.0	-0.0	-0.0	-0.0	-0.0	-0.9916608333587646	3.050255537033081	-725.5994262695312	-0.0	-0.0	-0.0	-0.0	-0.0	-0.0	204623.3125	14111.5791015625	-2195.069580078125
0.5245	-0.0	-0.0	-0.0	-0.0	-0.0	-0.0	-0.9519924521446228	3.0567121505737305	-722.88232421875	-0.0	-0.0	-0.0	-0.0	-0.0	-0.0	204123.484375	14405.9423828125	-2152.07470703125
0.525	-0.0	-0.0	-0.0	-0.0	-0.0	-0.0	-0.6609141826629639	3.123082637786865	-722.7435913085938	-0.0	-0.0	-0.0	-0.0	-0.0	-0.0	203890.6875	14478.3798828125	-2016.8421630859373
0.5255	-0.0	-0.0	-0.0	-0.0	-0.0	-0.0	-0.1771573722362518	3.3945109844207764	-720.5301513671875	-0.0	-0.0	-0.0	-0.0	-0.0	-0.0	203387.5625	14795.634765625	-1956.2913818359373
0.526	-0.0	-0.0	-0.0	-0.0	-0.0	-0.0	0.2983349561691284	3.5331735610961914	-718.204833984375	-0.0	-0.0	-0.0	-0.0	-0.0	-0.0	202459.703125	15032.837890625	-1886.62060546875
0.5265	-0.0	-0.0	-0.0	-0.0	-0.0	-0.0	0.0684215053915977	2.8142662048339844	-715.1257934570312	-0.0	-0.0	-0.0	-0.0	-0.0	-0.0	201864.3125	15300.994140625	-1903.789306640625
0.527	-0.0	-0.0	-0.0	-0.0	-0.0	-0.0	-0.6815170049667358	1.9754101037979128	-713.0634765625	-0.0	-0.0	-0.0	-0.0	-0.0	-0.0	201197.921875	15667.6123046875	-2177.59521484375
0.5275	-0.0	-0.0	-0.0	-0.0	-0.0	-0.0	-1.818145036697388	0.9863394498825072	-709.7839965820312	-0.0	-0.0	-0.0	-0.0	-0.0	-0.0	200650.984375	16028.408203125	-2338.4267578125
